<svg width="80" height="80" viewBox="0 0 80 80" fill="none" xmlns="http://www.w3.org/2000/svg">
<path d="M60.2284 26.09L62.1105 31.595H69.8645V26.09H60.2284Z" fill="white"/>
<path d="M57.2472 17.375L59.1292 22.88H69.8645V17.375H57.2472Z" fill="white"/>
<path d="M25.2974 33.11L22.3614 23.915L19.4103 33.11H25.2974ZM27.0289 38.465H17.6939L16.4291 42.395H10.1656L18.7027 17.375H26.0201L34.5571 42.395H28.2786L27.0289 38.465Z" fill="white"/>
<path d="M22.9034 55.505C22.9034 59.315 20.2384 61.625 16.7453 61.625C12.8156 61.625 10 58.745 10 55.175C10 51.56 12.8758 48.68 16.5496 48.68C18.9435 48.68 20.9611 49.85 22.0151 51.53L19.591 52.91C19.079 52.1 17.9498 51.455 16.5345 51.455C14.4266 51.455 12.8607 53 12.8607 55.19C12.8607 57.305 14.3513 58.85 16.7905 58.85C18.4467 58.85 19.5307 58.115 19.9824 56.93H16.6399V54.44H22.9034V55.505Z" fill="white"/>
<path d="M27.3751 54.8H29.5132C30.2961 54.8 30.9435 54.11 30.9435 53.195C30.9435 52.295 30.2961 51.59 29.5132 51.59H27.3751V54.8V54.8ZM28.7302 57.29H27.3751V61.385H24.5144V48.935H29.5132C31.8921 48.935 33.7892 50.84 33.7892 53.195C33.7892 54.725 32.8557 56.105 31.4855 56.81L34.1505 61.385H31.079L28.7302 57.29Z" fill="white"/>
<path d="M44.916 55.145C44.916 52.925 43.3049 51.44 41.2723 51.44C39.2397 51.44 37.6286 52.91 37.6286 55.145C37.6286 57.365 39.2397 58.85 41.2723 58.85C43.32 58.85 44.916 57.38 44.916 55.145ZM34.783 55.145C34.783 51.485 37.6889 48.68 41.2723 48.68C44.8557 48.68 47.7616 51.485 47.7616 55.145C47.7616 58.805 44.8557 61.61 41.2723 61.61C37.6889 61.61 34.783 58.82 34.783 55.145Z" fill="white"/>
<path d="M49.207 57.35V48.92H52.0678V57.095C52.0678 58.04 52.5195 58.835 54.0251 58.835C55.5458 58.835 55.9824 58.04 55.9824 57.095V48.92H58.8432V57.35C58.8432 60.02 56.7804 61.61 54.0251 61.61C51.2698 61.61 49.207 60.02 49.207 57.35Z" fill="white"/>
<path d="M67.1544 53.195C67.1544 52.295 66.5069 51.59 65.6337 51.59H63.7516V54.785H65.6337C66.5069 54.8 67.1544 54.095 67.1544 53.195ZM70 53.195C70 55.565 68.0879 57.47 65.6337 57.47H63.7516V61.385H60.8909V48.935H65.6186C68.0879 48.935 70 50.825 70 53.195Z" fill="white"/>
<path d="M36.7554 17.375L45.3074 42.395H39.0289L30.4768 17.375H36.7554Z" fill="white"/>
<path d="M47.581 17.375L56.1331 42.395H49.8546L41.3025 17.375H47.581Z" fill="white"/>
<path d="M58.1055 17.375L66.6575 42.395H60.379L51.8269 17.375H58.1055Z" fill="white"/>
</svg>
